<?xml version="1.0" standalone="no"?>
<!DOCTYPE svg PUBLIC "-//W3C//DTD SVG 20010904//EN"
 "http://www.w3.org/TR/2001/REC-SVG-20010904/DTD/svg10.dtd">
<svg version="1.0" xmlns="http://www.w3.org/2000/svg"
 width="128.000000pt" height="128.000000pt" viewBox="0 0 128.000000 128.000000"
 preserveAspectRatio="xMidYMid meet">
<metadata>
Created by potrace 1.11, written by Peter Selinger 2001-2013
</metadata>
<g transform="translate(0.000000,128.000000) scale(0.100000,-0.100000)"
fill="#000000" stroke="none">
<path d="M60 968 c1 -13 7 -34 15 -48 20 -36 20 -169 0 -176 -35 -14 -10 -55
152 -257 l167 -207 403 0 403 0 11 28 c19 45 23 202 8 240 -8 19 -102 121
-219 238 l-205 204 -367 0 -368 0 0 -22z m110 -54 c0 -16 26 -19 35 -5 3 6 -3
14 -12 20 -10 6 -13 11 -6 11 6 0 15 -5 18 -10 5 -8 11 -7 21 0 7 7 19 10 26
7 8 -4 7 -6 -4 -6 -22 -1 -24 -31 -3 -31 8 0 15 4 15 10 0 16 41 33 53 21 7
-7 16 -7 29 0 13 7 23 7 33 -1 9 -7 15 -8 20 0 3 5 14 9 23 9 15 -1 15 -2 0
-6 -19 -5 -24 -28 -9 -38 6 -3 15 3 20 14 13 24 40 34 56 21 6 -5 15 -7 18 -4
11 11 96 13 103 3 4 -6 11 -5 20 2 11 9 18 9 26 1 8 -8 17 -8 30 -1 13 7 23 7
33 -1 9 -7 15 -8 20 0 3 5 12 10 18 9 9 0 9 -2 0 -6 -18 -7 -16 -33 2 -33 8 0
15 7 15 15 0 8 5 15 10 15 6 0 10 -7 10 -15 0 -8 7 -15 15 -15 8 0 15 -7 15
-17 0 -15 -1 -15 -18 0 -23 21 -32 21 -32 2 0 -8 7 -15 16 -15 8 0 13 -4 9 -9
-10 -17 18 -24 30 -8 15 21 25 22 25 2 0 -8 -7 -15 -15 -15 -23 0 -18 -13 16
-43 18 -15 29 -31 25 -35 -4 -4 -12 1 -17 11 -6 9 -17 17 -25 17 -8 0 -13 4
-10 9 3 5 -1 11 -9 15 -22 8 -30 -15 -10 -30 10 -8 16 -16 13 -20 -4 -3 -16 4
-28 16 -20 20 -21 22 -4 34 9 7 14 18 10 25 -5 8 -21 -1 -48 -29 -31 -30 -38
-44 -30 -52 8 -8 13 -7 18 5 7 18 34 24 34 7 0 -5 -7 -10 -15 -10 -8 0 -15 -6
-15 -14 0 -25 18 -28 30 -6 l11 21 19 -23 20 -23 6 23 c7 24 24 30 24 8 0 -8
-8 -17 -17 -20 -13 -5 -14 -9 -4 -19 10 -9 18 -5 41 19 l28 32 23 -29 c25 -30
45 -37 51 -18 3 8 10 8 26 -2 25 -16 29 -39 7 -39 -17 0 -20 -16 -4 -25 6 -4
16 1 23 10 12 16 16 15 49 -19 41 -41 44 -46 22 -46 -8 0 -14 3 -12 8 4 14
-45 54 -55 44 -12 -12 -1 -35 13 -27 5 4 9 -1 9 -9 0 -9 -7 -16 -16 -16 -8 0
-13 4 -9 9 11 19 -18 24 -31 6 -8 -10 -17 -15 -21 -11 -5 4 1 14 11 22 15 10
17 17 9 25 -13 13 -36 3 -28 -12 10 -15 -12 -10 -25 6 -17 20 -32 19 -28 -2 2
-10 10 -17 16 -15 7 1 12 -5 12 -13 0 -8 -7 -15 -15 -15 -8 0 -15 7 -15 15 0
8 -7 15 -17 15 -15 0 -15 2 1 19 10 11 15 25 11 31 -4 7 -16 1 -32 -16 -24
-26 -24 -28 -7 -41 9 -7 15 -16 11 -19 -3 -3 -26 15 -50 41 -26 27 -48 42 -51
36 -9 -13 23 -63 35 -55 5 3 9 -2 9 -10 0 -21 -10 -20 -26 2 -13 16 -15 16
-25 0 -11 -20 -30 -24 -27 -6 2 6 -5 14 -14 16 -11 2 -18 -2 -18 -11 0 -8 -6
-17 -14 -20 -8 -3 -13 1 -12 11 0 9 -6 17 -14 17 -8 0 -14 -8 -14 -17 2 -23 2
-23 -31 8 -25 23 -27 27 -12 36 19 10 23 28 7 28 -6 0 -21 -9 -33 -21 -21 -19
-21 -21 -4 -33 21 -16 22 -26 2 -26 -8 0 -15 7 -15 15 0 8 -5 15 -10 15 -6 0
-13 -7 -16 -15 -7 -18 -35 -20 -32 -3 2 7 -4 13 -12 13 -8 0 -14 -6 -12 -13 1
-6 -5 -12 -13 -12 -20 0 -19 17 3 29 13 7 14 13 5 22 -9 9 -18 5 -39 -17 -19
-21 -25 -23 -20 -10 6 19 -22 56 -42 56 -6 0 -12 9 -15 21 -3 12 -10 18 -16
14 -6 -3 -11 -1 -11 6 0 6 -17 28 -37 49 -140 139 -175 179 -155 173 12 -3 22
-12 22 -19z m61 -166 c185 -217 181 -210 178 -298 -1 -41 -4 -78 -6 -83 -3 -4
-45 43 -96 105 -50 62 -94 115 -97 118 -3 3 -23 27 -45 55 -40 49 -40 50 -41
137 -1 49 0 88 1 88 1 0 49 -55 106 -122z m662 67 c16 -22 16 -25 2 -25 -9 0
-14 4 -11 9 3 5 -1 11 -9 15 -8 3 -15 10 -15 16 0 17 14 11 33 -15z m47 -45
c0 -5 -7 -10 -15 -10 -8 0 -15 5 -15 10 0 6 7 10 15 10 8 0 15 -4 15 -10z m19
-39 c-15 -5 -22 6 -14 19 6 9 10 9 16 -1 5 -8 4 -15 -2 -18z m215 -243 c6 -23
6 -60 0 -95 l-9 -58 -363 -3 -363 -2 7 22 c4 13 7 58 6 101 l-1 77 357 -2 357
-3 9 -37z"/>
<path d="M285 920 c-3 -6 1 -13 10 -16 19 -8 30 0 20 15 -8 14 -22 14 -30 1z"/>
<path d="M345 920 c-8 -13 4 -32 16 -25 12 8 12 35 0 35 -6 0 -13 -4 -16 -10z"/>
<path d="M448 909 c-22 -23 -23 -39 -3 -39 8 0 15 6 15 14 0 8 7 17 16 20 8 3
12 10 9 16 -9 14 -17 11 -37 -11z"/>
<path d="M486 890 c-25 -24 -35 -40 -27 -44 16 -10 33 3 27 21 -3 8 -1 11 4 8
12 -8 61 36 54 47 -8 13 -17 8 -58 -32z"/>
<path d="M572 914 c4 -21 22 -23 26 -1 2 10 -3 17 -13 17 -10 0 -15 -6 -13
-16z"/>
<path d="M625 920 c-3 -6 1 -13 10 -16 19 -8 30 0 20 15 -8 14 -22 14 -30 1z"/>
<path d="M685 919 c-10 -15 1 -23 20 -15 9 3 13 10 10 16 -8 13 -22 13 -30 -1z"/>
<path d="M200 890 c0 -6 7 -13 15 -16 8 -4 15 -12 15 -20 0 -8 7 -14 15 -14 8
0 15 7 15 15 0 8 -7 15 -15 15 -8 0 -15 7 -15 15 0 8 -7 15 -15 15 -8 0 -15
-5 -15 -10z"/>
<path d="M260 890 c0 -5 9 -19 20 -30 22 -22 45 -18 36 6 -3 8 0 11 10 7 7 -3
14 -11 14 -19 0 -8 7 -14 15 -14 8 0 15 7 15 15 0 8 -7 15 -15 15 -8 0 -15 7
-15 15 0 8 -4 15 -9 15 -5 0 -14 -7 -21 -15 -7 -8 -16 -15 -21 -15 -5 0 -6 7
-3 15 4 9 0 15 -10 15 -9 0 -16 -4 -16 -10z"/>
<path d="M370 885 c0 -8 7 -15 15 -15 8 0 15 7 15 15 0 8 -7 15 -15 15 -8 0
-15 -7 -15 -15z"/>
<path d="M545 890 c-3 -6 1 -13 9 -16 9 -3 16 -10 16 -15 0 -18 42 -51 52 -41
11 11 -23 52 -42 52 -5 0 -10 7 -10 15 0 17 -16 20 -25 5z"/>
<path d="M600 885 c0 -8 7 -15 15 -15 8 0 15 7 15 15 0 8 -7 15 -15 15 -8 0
-15 -7 -15 -15z"/>
<path d="M641 876 c-14 -15 -19 -26 -12 -31 15 -9 33 4 27 20 -2 7 1 12 7 11
14 -1 22 17 10 21 -5 2 -19 -7 -32 -21z"/>
<path d="M713 888 c2 -7 11 -12 19 -12 10 1 14 -5 11 -17 -4 -13 0 -19 11 -19
21 0 20 23 -2 43 -22 20 -46 22 -39 5z"/>
<path d="M406 873 c-12 -12 -6 -33 9 -33 8 0 15 6 15 14 0 17 -14 28 -24 19z"/>
<path d="M675 854 c-19 -18 -24 -29 -17 -36 12 -12 35 -1 27 13 -4 5 0 9 8 9
8 0 17 7 20 15 10 26 -10 25 -38 -1z"/>
<path d="M513 858 c2 -7 10 -13 17 -13 7 0 15 6 18 13 2 7 -5 12 -18 12 -13 0
-20 -5 -17 -12z"/>
<path d="M266 843 c-12 -12 -6 -33 9 -33 8 0 15 6 15 14 0 17 -14 28 -24 19z"/>
<path d="M377 844 c-12 -13 -8 -34 8 -34 8 0 15 -4 15 -10 0 -5 -7 -10 -15
-10 -15 0 -21 -21 -9 -33 7 -6 84 65 84 77 0 3 -7 6 -15 6 -8 0 -15 -4 -15
-10 0 -15 -21 -12 -34 6 -6 8 -15 12 -19 8z"/>
<path d="M307 822 c-20 -22 -22 -46 -4 -39 6 2 12 11 11 18 -1 8 7 15 17 15
23 0 23 2 -1 -26 -28 -32 -13 -46 17 -15 25 24 25 26 8 45 -22 25 -28 25 -48
2z"/>
<path d="M485 831 c-3 -5 -1 -12 5 -16 12 -7 30 2 30 16 0 12 -27 12 -35 0z"/>
<path d="M542 828 c6 -18 28 -21 28 -4 0 9 -7 16 -16 16 -9 0 -14 -5 -12 -12z"/>
<path d="M712 828 c5 -15 28 -18 29 -3 0 6 -7 12 -17 13 -10 3 -15 -1 -12 -10z"/>
<path d="M455 810 c-7 -11 2 -30 15 -30 4 0 10 6 13 14 6 16 -19 30 -28 16z"/>
<path d="M515 810 c-9 -15 4 -30 20 -23 8 3 15 9 15 13 0 12 -29 20 -35 10z"/>
<path d="M562 795 c-33 -34 -17 -53 16 -20 15 15 22 29 16 35 -5 5 -18 -1 -32
-15z"/>
<path d="M624 809 c-10 -17 13 -36 27 -22 12 12 4 33 -11 33 -5 0 -12 -5 -16
-11z"/>
<path d="M684 809 c-10 -17 13 -36 27 -22 12 12 4 33 -11 33 -5 0 -12 -5 -16
-11z"/>
<path d="M417 768 c-10 -11 -16 -26 -13 -34 7 -18 26 -9 26 12 0 8 6 13 13 12
14 -3 17 24 2 28 -5 1 -18 -7 -28 -18z"/>
<path d="M484 779 c-10 -17 13 -36 27 -22 12 12 4 33 -11 33 -5 0 -12 -5 -16
-11z"/>
<path d="M596 781 c-3 -5 1 -14 8 -20 16 -13 32 2 21 19 -8 12 -22 13 -29 1z"/>
<path d="M654 779 c-3 -6 -2 -15 2 -19 12 -12 38 5 30 19 -9 14 -23 14 -32 0z"/>
<path d="M342 744 c4 -21 22 -23 26 -1 2 10 -3 17 -13 17 -10 0 -15 -6 -13
-16z"/>
<path d="M459 753 c-1 -5 -1 -11 0 -15 0 -5 -6 -8 -14 -8 -8 0 -15 -7 -15 -15
0 -8 5 -15 11 -15 14 0 49 43 42 52 -6 10 -23 10 -24 1z"/>
<path d="M520 750 c0 -5 0 -12 0 -15 0 -3 3 -4 6 -2 3 1 10 -6 15 -15 11 -19
29 -24 29 -8 0 10 -36 50 -45 50 -3 0 -5 -4 -5 -10z"/>
<path d="M572 744 c4 -21 22 -23 26 -1 2 10 -3 17 -13 17 -10 0 -15 -6 -13
-16z"/>
<path d="M624 749 c-10 -17 13 -36 27 -22 12 12 4 33 -11 33 -5 0 -12 -5 -16
-11z"/>
<path d="M685 750 c-8 -13 4 -32 16 -25 5 4 9 -1 9 -9 0 -9 7 -16 15 -16 21 0
19 16 -5 40 -23 23 -26 24 -35 10z"/>
<path d="M370 715 c0 -8 7 -15 15 -15 8 0 15 7 15 15 0 8 -7 15 -15 15 -8 0
-15 -7 -15 -15z"/>
<path d="M462 697 c-32 -33 -43 -62 -19 -54 6 2 11 11 11 20 -1 9 4 13 12 10
8 -3 16 2 20 10 3 9 12 18 21 21 11 4 13 2 10 -9 -8 -19 13 -32 23 -15 5 9 0
20 -15 32 -13 10 -25 18 -27 18 -2 0 -18 -15 -36 -33z"/>
<path d="M587 712 c-10 -10 -17 -24 -17 -30 0 -7 -7 -12 -16 -12 -9 0 -14 -5
-12 -12 6 -18 28 -21 28 -4 0 9 7 16 16 16 11 0 15 6 11 20 -4 17 -2 18 14 9
10 -5 19 -14 19 -19 0 -6 7 -10 16 -10 11 0 15 6 12 18 -3 12 1 18 12 18 9 0
17 -7 16 -16 -1 -8 6 -14 15 -14 9 1 16 -5 15 -14 0 -8 5 -17 12 -19 24 -9 11
24 -23 57 -33 32 -35 33 -54 16 -16 -15 -19 -15 -24 -1 -8 20 -20 19 -40 -3z"/>
<path d="M758 711 c-22 -22 -23 -41 -3 -41 8 0 15 6 15 14 0 8 7 16 15 20 18
7 20 26 3 25 -7 0 -21 -8 -30 -18z"/>
<path d="M880 714 c0 -11 6 -15 19 -11 14 3 17 0 14 -14 -4 -13 0 -19 11 -19
21 0 20 23 -2 43 -24 21 -42 22 -42 1z"/>
<path d="M401 696 c-12 -14 -5 -26 16 -26 15 0 18 26 4 34 -5 3 -14 0 -20 -8z"/>
<path d="M794 699 c-8 -14 11 -33 25 -25 6 4 11 11 11 16 0 13 -29 20 -36 9z"/>
<path d="M855 700 c-10 -17 12 -37 25 -24 8 8 6 15 -4 23 -10 9 -16 9 -21 1z"/>
<path d="M957 682 c-20 -22 -22 -46 -4 -39 6 2 11 11 11 19 -1 9 5 15 14 14 8
0 17 5 19 12 7 18 -22 14 -40 -6z"/>
<path d="M483 658 c2 -7 12 -12 21 -11 11 0 15 -4 12 -13 -7 -17 13 -29 26
-16 6 6 2 17 -13 31 -25 23 -53 28 -46 9z"/>
<path d="M655 661 c-3 -5 -1 -12 5 -16 12 -7 30 2 30 16 0 12 -27 12 -35 0z"/>
<path d="M823 658 c2 -7 10 -13 17 -13 7 0 15 6 18 13 2 7 -5 12 -18 12 -13 0
-20 -5 -17 -12z"/>
<path d="M626 642 c-2 -4 -1 -14 4 -22 7 -11 12 -12 21 -3 6 6 8 16 5 22 -8
13 -23 14 -30 3z"/>
<path d="M685 640 c-11 -17 5 -32 21 -19 7 6 11 15 8 20 -7 12 -21 11 -29 -1z"/>
<path d="M745 640 c-8 -13 4 -32 16 -25 12 8 12 35 0 35 -6 0 -13 -4 -16 -10z"/>
</g>
</svg>
